<?xml version="1.0" standalone="no"?>
<!DOCTYPE svg PUBLIC "-//W3C//DTD SVG 20010904//EN"
 "http://www.w3.org/TR/2001/REC-SVG-20010904/DTD/svg10.dtd">
<svg version="1.0" xmlns="http://www.w3.org/2000/svg"
 width="2084.000000pt" height="2084.000000pt" viewBox="0 0 2084.000000 2084.000000"
 preserveAspectRatio="xMidYMid meet">
<metadata>
Created by potrace 1.14, written by Peter Selinger 2001-2017
</metadata>
<g transform="translate(0.000000,2084.000000) scale(0.100000,-0.100000)"
fill="#000000" stroke="none">
<path d="M10148 20675 c-2 -1 -84 -6 -183 -9 -99 -4 -205 -9 -235 -11 -68 -5
-205 -15 -245 -19 -16 -2 -66 -6 -110 -10 -44 -4 -91 -9 -105 -11 -14 -2 -47
-7 -75 -10 -91 -10 -121 -14 -235 -30 -81 -12 -188 -28 -205 -31 -11 -2 -33
-7 -50 -9 -50 -9 -138 -24 -175 -30 -19 -3 -53 -10 -75 -15 -22 -5 -55 -12
-74 -15 -19 -3 -96 -19 -170 -36 -75 -17 -145 -32 -156 -34 -108 -23 -539
-141 -675 -185 -36 -12 -72 -23 -80 -25 -97 -22 -691 -241 -905 -335 -266
-116 -559 -256 -740 -352 -138 -74 -247 -134 -290 -159 -16 -10 -52 -30 -80
-44 -27 -15 -57 -33 -66 -41 -8 -8 -18 -14 -22 -14 -16 0 -386 -235 -587 -374
-63 -44 -129 -89 -145 -100 -98 -67 -529 -398 -555 -426 -3 -3 -30 -25 -60
-50 -30 -25 -57 -47 -60 -50 -3 -3 -36 -32 -75 -65 -68 -58 -95 -82 -219 -195
-109 -99 -246 -233 -390 -379 -183 -186 -186 -189 -291 -306 -202 -225 -280
-318 -465 -550 -39 -49 -76 -97 -83 -105 -7 -8 -74 -100 -150 -205 -75 -104
-141 -195 -145 -200 -13 -18 -158 -238 -204 -310 -284 -443 -546 -936 -758
-1425 -34 -80 -69 -159 -76 -176 -28 -64 -142 -362 -169 -439 -15 -44 -31 -89
-35 -100 -28 -69 -177 -545 -196 -625 -1 -8 -15 -58 -30 -110 -14 -52 -27
-102 -29 -110 -2 -8 -17 -71 -33 -140 -32 -131 -106 -486 -116 -555 -4 -23 -8
-52 -11 -65 -8 -40 -24 -132 -29 -172 -10 -67 -17 -112 -21 -148 -3 -19 -7
-46 -10 -60 -2 -14 -7 -52 -10 -84 -3 -33 -8 -62 -9 -65 -2 -3 -7 -44 -10 -91
-4 -47 -9 -98 -11 -115 -3 -16 -7 -55 -10 -85 -5 -51 -7 -88 -20 -265 -26
-365 -26 -1000 0 -1365 11 -152 24 -315 30 -365 3 -22 7 -67 10 -100 3 -33 8
-71 10 -85 2 -14 7 -43 9 -65 12 -94 38 -277 52 -360 9 -49 17 -99 19 -110 20
-149 80 -426 180 -835 48 -196 213 -723 285 -910 12 -30 25 -66 29 -80 24 -75
183 -460 247 -598 19 -41 34 -76 34 -78 0 -3 54 -114 119 -247 113 -229 153
-304 257 -491 24 -43 44 -82 44 -87 0 -5 5 -9 10 -9 6 0 10 -4 10 -9 0 -16
197 -340 271 -448 16 -23 29 -44 29 -47 0 -3 27 -44 60 -91 33 -47 60 -88 60
-91 0 -3 5 -10 10 -17 6 -7 67 -90 135 -185 195 -271 394 -522 574 -727 350
-397 663 -710 1046 -1044 54 -47 209 -175 285 -236 41 -33 77 -62 80 -66 3 -3
23 -18 45 -34 22 -17 42 -32 45 -35 8 -9 188 -142 285 -211 156 -112 384 -264
539 -361 39 -24 86 -53 105 -65 20 -13 43 -26 51 -30 8 -3 38 -21 66 -38 164
-104 659 -363 952 -498 265 -123 682 -286 997 -392 147 -48 408 -129 455 -140
8 -2 49 -13 90 -25 41 -11 82 -23 90 -25 8 -1 44 -11 80 -20 36 -9 72 -18 80
-20 8 -2 65 -15 125 -29 61 -15 119 -28 130 -30 11 -2 31 -7 45 -10 14 -3 37
-8 53 -10 15 -3 35 -7 45 -10 9 -3 28 -7 42 -10 14 -2 63 -11 110 -20 47 -8
99 -18 115 -21 17 -2 39 -7 50 -9 20 -4 84 -14 140 -22 17 -2 41 -6 55 -9 14
-2 45 -7 70 -10 25 -3 56 -8 70 -10 14 -2 49 -7 79 -10 30 -4 62 -8 71 -10 9
-2 49 -6 89 -10 40 -3 80 -8 89 -10 19 -3 117 -12 227 -21 39 -3 88 -7 110 -9
308 -27 1124 -27 1480 0 165 13 204 16 235 20 19 2 69 7 110 11 41 3 84 8 95
10 11 2 45 7 75 10 30 3 66 7 80 9 14 2 45 7 70 10 46 6 86 11 140 20 17 2 48
7 68 10 21 3 47 7 59 9 19 4 39 7 131 22 20 3 134 26 252 50 118 25 226 47
240 50 32 7 318 78 390 97 400 108 950 297 1290 444 19 8 44 19 55 24 11 4 55
24 98 44 43 19 80 35 83 35 7 0 213 98 374 179 401 200 715 383 1110 646 433
289 809 583 1220 954 180 163 639 629 760 771 11 14 33 39 48 55 15 17 63 73
107 125 44 52 82 97 85 100 12 11 202 253 286 365 159 212 444 623 444 642 0
3 8 16 18 27 18 21 210 338 269 446 17 30 54 98 83 150 80 143 340 667 340
684 0 3 13 33 29 68 35 73 121 276 121 284 0 3 8 24 19 47 59 132 223 597 291
827 17 58 39 132 49 165 20 62 120 451 128 495 2 14 10 50 18 80 8 30 17 70
20 88 3 18 12 64 20 102 8 38 17 84 20 102 3 18 8 40 10 48 3 8 7 32 9 54 3
21 8 46 10 55 3 9 8 34 11 56 3 23 7 50 9 62 3 11 7 38 10 59 3 22 8 50 11 64
2 14 6 41 9 60 10 74 26 197 31 245 3 28 10 84 15 125 17 143 30 299 47 580
10 163 10 953 0 1100 -4 58 -9 134 -12 170 -5 86 -14 195 -20 245 -2 22 -7 72
-10 110 -4 39 -8 81 -11 95 -2 14 -6 54 -10 90 -3 36 -7 67 -9 70 -2 3 -6 34
-10 70 -3 36 -8 72 -10 80 -4 15 -7 33 -20 120 -4 25 -9 59 -12 75 -2 17 -6
39 -8 50 -2 18 -26 152 -41 230 -3 17 -17 84 -31 150 -14 66 -26 127 -28 136
-6 28 -36 153 -45 189 -10 38 -30 116 -35 140 -17 75 -130 469 -145 505 -4 11
-20 58 -35 105 -93 297 -268 747 -404 1043 -17 37 -45 97 -62 135 -82 177
-225 452 -384 737 -45 79 -192 322 -243 399 -26 39 -49 76 -52 81 -12 23 -66
100 -72 103 -5 2 -8 8 -8 12 0 34 -478 675 -664 891 -17 19 -42 49 -56 65 -74
87 -147 172 -170 195 -14 15 -63 69 -110 120 -157 172 -467 478 -675 664 -12
11 -39 36 -61 55 -21 20 -71 62 -110 95 -70 60 -90 77 -239 200 -83 69 -428
331 -525 398 -208 145 -556 369 -725 467 -48 28 -157 91 -190 110 -163 93
-544 286 -715 362 -19 9 -66 30 -105 48 -38 17 -79 36 -90 40 -11 5 -40 18
-65 28 -25 11 -103 43 -175 72 -71 28 -157 62 -190 75 -181 73 -676 240 -768
260 -12 2 -60 16 -107 30 -47 14 -94 28 -105 30 -11 3 -110 27 -220 55 -172
42 -389 91 -475 106 -14 2 -36 7 -50 9 -14 3 -36 8 -50 10 -62 12 -380 64
-425 69 -27 3 -59 8 -70 10 -29 5 -112 16 -170 21 -27 3 -61 7 -75 10 -14 2
-59 7 -100 10 -41 4 -88 8 -105 10 -28 3 -90 8 -240 20 -153 12 -326 17 -632
20 -183 1 -334 1 -335 0z"/>
</g>
</svg>
